<?xml version="1.0" encoding="UTF-8"?>
<!DOCTYPE svg PUBLIC "-//W3C//DTD SVG 1.1//EN" "http://www.w3.org/Graphics/SVG/1.1/DTD/svg11.dtd">
<!-- Creator: CorelDRAW (Evaluation Version) -->
<svg xmlns="http://www.w3.org/2000/svg" xml:space="preserve" width="428mm" height="90mm" version="1.1" style="shape-rendering:geometricPrecision; text-rendering:geometricPrecision; image-rendering:optimizeQuality; fill-rule:evenodd; clip-rule:evenodd"
viewBox="0 0 42800 9000"
 xmlns:xlink="http://www.w3.org/1999/xlink"
 xmlns:xodm="http://www.corel.com/coreldraw/odm/2003">
 <defs>
  <style type="text/css">
   <![CDATA[
    .fil0 {fill:#22477B}
    .fil1 {fill:#22477B;fill-rule:nonzero}
   ]]>
  </style>
 </defs>
 <g id="图层_x0020_1">
  <metadata id="CorelCorpID_0Corel-Layer"/>
  <path class="fil0" d="M20911.34 5470.99l137.45 0 0 400.51 215.95 154.92 217.48 -156.02 0 -399.41 137.45 0 0 300.8 0 350.98 0 194.39 -137.45 96.98 0 -192.67 -217.63 156.28 -215.8 -155.02 0 207.97 -137.45 -97.03 0 -209.67 0 -351.11 0 -301.9zm210.64 346.25l0 -1999.12c-440.65,-32.39 -866.74,-161.27 -1279.38,-312.9 78.16,587.43 156.39,1174.87 234.15,1762.36l177.9 0c7.61,57.44 13.77,115.7 27.63,172 18.48,75.05 31.51,110.3 94.48,153.96 57.83,39.98 115.57,80.1 173.26,120.35l0 -1637.39 -167.3 0 0 -185c149.2,40.63 300.85,75.69 453.28,101.36 0,756.7 0,1513.41 0,2270.11l0 0 -8.87 -6.26 -0.01 -0.01 -8.87 -6.27 0 -0.01 -8.88 -6.26 0 -0.01 -8.87 -6.26 0 -0.01 -8.87 -6.27 -0.01 0 -8.88 -6.27 0 0 -8.87 -6.27 -0.01 0 -8.87 -6.27 0 0c-193.67,-136.75 -387.96,-273.49 -583.45,-407.61 -26.85,-18.49 -53.45,-46.47 -73.73,-72.16 -76.98,-99.08 -108.48,-224.59 -124.96,-346.87l-15.7 -118.58c-93.9,-709.32 -188.46,-1418.6 -282.78,-2127.9l0 0 0.66 0.29 0 0 1.96 0.84 0.01 0 3.22 1.38 0.01 0 4.47 1.9 0.01 0 5.7 2.41 0 0c255.21,106.95 535.92,201.75 800.25,271.79 248.21,65.67 507.7,118.22 764.3,121.08 228.45,-2.54 475.06,-48.16 698.77,-104.2 299.09,-74.92 598.57,-173.55 881.84,-295.49 -101.98,760.38 -202.29,1521.05 -303.12,2281.59 -4.67,35.33 -15.96,85.86 -25.65,119.32 -18.01,62.14 -43.62,121.84 -81.15,175.43 -28.59,40.05 -55.65,67.38 -95.41,94.66 -183.11,125.93 -364.49,254.62 -546.13,382.62 -33.39,23.55 -66.78,47.09 -100.17,70.65l0 0 0 -132.74 0 -138.82 0 -76.63 0 -1922.9c96.08,-16.18 192.14,-36.22 285.98,-58.59l0 1780.43c88.37,-61.94 161.75,-113.11 205.95,-143.41 30.54,-27.43 48.94,-79.01 59.48,-117.6 15.83,-58.09 23.13,-126.55 31.75,-186.11l176.11 0c49.2,-371.01 166.51,-1253.55 234.17,-1762.42l-188.43 69.24c-304.38,101.81 -715.31,216.1 -1090.99,243.71l0 1998.8 -143.22 102.75 -142.76 -102.42zm140.21 -3932.64c1464.78,0 2652.31,1187.51 2652.31,2652.39 0,794.86 -349.79,1507.98 -903.71,1994.1 -256.56,-117.36 -526.2,-209.68 -806.01,-274 -24.27,16.9 -48.51,33.84 -72.74,50.81 286.19,61.42 561.88,152.52 823.94,270.07 -130.92,108.76 -272.45,205.19 -422.85,287.45 -286.37,-103.49 -588.14,-172.99 -900.79,-203.84l-109.96 78.19c313.5,22.15 616.45,84 904.22,180.75 -123.71,60.56 -252.82,111.75 -386.42,152.72 -250.18,-59.8 -510.58,-91.41 -778.04,-91.41 -267.44,0 -527.85,31.61 -778.01,91.4 -133.59,-40.97 -262.71,-92.16 -386.42,-152.72 289.4,-97.3 594.16,-159.3 909.56,-181.11l-110.57 -78.28c-314.34,30.61 -617.71,100.28 -905.52,204.29 -150.4,-82.26 -291.94,-178.68 -422.86,-287.45 262.9,-117.92 539.51,-209.22 826.68,-270.64 -24.24,-16.97 -48.5,-33.92 -72.77,-50.85 -280.78,64.34 -551.33,156.87 -808.72,274.61 -553.94,-486.12 -903.72,-1199.23 -903.72,-1994.09 0,-1464.88 1187.52,-2652.39 2652.4,-2652.39zm535.42 5250.61c-172.92,35.48 -352,54.09 -535.42,54.09 -183.43,0 -362.53,-18.61 -535.47,-54.09 174.39,-29.16 353.21,-44.37 535.42,-44.37 182.23,0 361.06,15.21 535.47,44.37z"/>
  <path class="fil1" d="M21263.01 780.77c1036.65,0 1975.32,420.46 2654.85,1100.07 679.56,679.67 1099.95,1618.53 1099.95,2655.25 0,1036.86 -420.41,1975.97 -1100.01,2655.86 -679.57,679.85 -1618.22,1100.49 -2654.79,1100.49 -1037.16,0 -1976.06,-420.56 -2655.72,-1100.28 -679.82,-679.89 -1100.29,-1619.08 -1100.29,-2656.07 0,-1036.79 420.44,-1975.71 1100.24,-2655.38 679.66,-679.54 1618.58,-1099.94 2655.77,-1099.94zm2623.91 1131.01c-671.6,-671.7 -1599.34,-1087.26 -2623.91,-1087.26 -1025.11,0 -1953.09,415.5 -2624.84,1087.12 -671.87,671.76 -1087.42,1599.73 -1087.42,2624.45 0,1024.91 415.57,1953.17 1087.48,2625.14 671.74,671.8 1599.7,1087.45 2624.78,1087.45 1024.6,0 1952.31,-415.67 2623.86,-1087.5 671.68,-671.96 1087.19,-1600.19 1087.19,-2625.09 0,-1024.65 -415.49,-1952.57 -1087.14,-2624.31z"/>
  <path class="fil0" d="M21262.75 1720.02c1555.46,0 2816.92,1260.78 2816.92,2816.93 0,1554.76 -1261.46,2816.92 -2816.92,2816.92 -1556.14,0 -2818.13,-1262.16 -2818.13,-2816.92 0,-1556.15 1261.99,-2816.93 2818.13,-2816.93zm0 83.3l0 0c-1509.52,0 -2733.8,1224.28 -2733.8,2733.63 0,1508.82 1224.28,2732.42 2733.8,2732.42 1508.14,0 2732.41,-1223.6 2732.41,-2732.42 0,-1509.35 -1224.27,-2733.63 -2732.41,-2733.63z"/>
  <path class="fil0" d="M21262.75 515.28c2220.39,0 4020.98,1800.59 4020.98,4021.67 0,2219.87 -1800.59,4020.97 -4020.98,4020.97 -2221.08,0 -4021.66,-1801.1 -4021.66,-4020.97 0,-2221.08 1800.58,-4021.67 4021.66,-4021.67zm0 173.65l0 0c-2124.91,0 -3847.85,1722.59 -3847.85,3848.02 0,2124.22 1722.94,3847.32 3847.85,3847.32 2123.88,0 3846.81,-1723.1 3846.81,-3847.32 0,-2125.43 -1722.93,-3848.02 -3846.81,-3848.02z"/>
  <path class="fil1" d="M18154.54 3746.93c9.11,3.67 29.16,10.77 42.47,16.49 19.8,8.29 22.7,16.45 21.19,23.68 -1.31,6.09 -7.31,15.31 -34.87,16.45 -25.81,0.94 -76.87,-2.24 -171.1,-15.75l25.96 -123.02 -85.7 -18.12 -13.75 65.15 -38.02 -65.03c-17.3,7.43 -57.93,29.1 -81.74,45.56l34.31 68.87c21.55,-14.04 60.71,-34.29 84.14,-43.27l-11.84 56.17 -2.82 -0.57c-53.93,-9.06 -89.09,-15.88 -122.85,-21.27l-20.78 87.46 128.32 20.12 -58.51 277.22 85.74 18.09 29.6 -140.25 184.78 39 -3.47 32.99 -162.57 -34.34 -18.86 78.59 172.53 36.42 -4.81 42.01 99.65 10 25.57 -297.54 -94.56 -19.97c-0.9,17.84 -2.57,39.6 -5.31,66.34l-46.79 -9.87 9.64 -45.65 -85.7 -18.09 -9.63 45.65 -42.83 -9.03 12.21 -57.89c103.12,15.35 157.55,19.27 202.3,19.39 87.98,1.76 118.36,-31.96 127.74,-76.51 9.39,-44.5 -6.65,-72.92 -58.13,-101.82 -25.52,-14.09 -37.94,-21.35 -52.38,-27.31l-59.13 59.65zm-361.64 121.29l-45.6 215.98 77.93 16.45 45.56 -215.97 -77.89 -16.46zm538.22 -1194.19c-27.92,8.25 -88.92,37.24 -114.72,50.5l32.94 83.13c33.12,-15.72 93.26,-40.46 119.79,-49.73l-38.01 -83.9zm351.32 -17.02c-29.56,-78.11 -72.35,-143.15 -127.87,-201.81l-79.86 -55.48 -166.9 240.09 77.09 53.57 111.69 -160.74c36.63,40.01 65.41,84.32 86.73,134.41 -47.69,0.81 -98.08,-4.41 -150.58,-16.62l-19.47 86.84c62.42,17.8 130.44,25.6 199.15,23.44 9.6,50.99 13.27,105.53 9.15,164.33l103.37 -9.2c0.7,-59.8 -4.28,-112.47 -15.14,-163.63 58.87,-8.98 113.45,-23.72 160.12,-43.96l-35.52 -99.42c-52.01,22 -101.25,39.03 -151.96,48.18zm-241.21 117.78c-37.8,12.53 -90.96,35.15 -122.52,50.63l32.95 85.25c29.93,-13.16 86.06,-35.12 125.91,-47.57l-36.34 -88.31zm38.96 123.38c25.39,34.21 74.54,118.97 93.82,160.08l84.42 -48.7c-20.66,-35.11 -73.97,-124.86 -96.38,-158.46l-81.86 47.08zm1144.38 -1103.39l57.2 -37.36 -45.77 -70.02 -146.2 95.54 -18.05 -27.6 92.4 -60.35 -14.95 -22.9c26.87,-2.53 52.75,-6.58 77.45,-12.54l-14.98 -91.49c-105.17,27.27 -186.3,30.01 -257.09,9.02l-77.12 50.39c-10.13,69.81 -42.83,141.46 -113.46,233.12l81.65 49.97c14.58,-22.41 27.35,-44.38 39.72,-66.06l14.95 22.86 92.4 -60.37 18.03 27.64 -146.23 95.53 45.77 69.98 55.68 -36.38 -20.54 54.83c17.36,3.67 51.81,15.84 80.1,25.84l-80.46 52.63 46.33 70.96 411.5 -268.89 -46.37 -70.96 -81.46 53.24c3.72,-27.6 4.08,-64.5 2.98,-84.88l-53.48 -1.75zm-265.63 -126.77c27.56,5.75 57.04,8.25 88.11,9.02l-116.68 76.22c13.06,-30.98 23.11,-59.27 28.57,-85.24zm97.54 236.59l54.79 83.86 -50.01 32.66 13.89 -50.5c-24.38,-9.27 -57.61,-19.47 -81.99,-24.62l63.32 -41.4zm136.69 -89.29c-1.5,28.87 -3.35,68.8 -7.3,87.66l55.89 0.2 -51.45 33.6 -54.79 -83.81 57.65 -37.65zm1284.8 -373.12c17.92,-18 36.86,-39.68 47.68,-52.79l-56.46 -51.6c-12.45,16.33 -29.4,36.5 -46.22,54.26 -11.51,-14.58 -22.09,-29.89 -30.01,-46.92l96.02 -18.74 -52.82 -270.8 -271.38 52.99 73.16 374.68c6.2,31.8 3.35,41.07 -13.35,56.5l-11.27 -43.03 -41.31 28.9 -12.21 -62.5 50.78 -9.92 -15.59 -79.86 -50.79 9.92 -7.76 -39.64 43 -8.38 -15.48 -79.28 -93.78 18.29c3.71,-13.47 6.37,-26.75 8.86,-40.54l85.45 -16.7 -15.72 -80.39 -55.8 10.9c1.38,-13.6 1.99,-25.31 2.65,-37.07l-85.53 13.27c-2.37,50.3 -18.09,115.38 -32.59,165.76l29.53 8.69 13.3 68.14 36.3 -7.1 7.75 39.64 -49.72 9.72 15.59 79.86 49.73 -9.72 10.01 51.36c5.54,28.46 1.14,38.59 -12.79,53.48l48.71 62.39c11.43,-9.8 20.49,-13.84 35.03,-25.39 12.53,-7.11 56.3,-38.22 72.51,-47.24l-3.96 -14.25 36.66 57.16c10.9,-6.78 32.01,-17.28 48.46,-25.07 15.88,-7.76 61.53,-29.4 86.31,-38.91l-17.8 -79.37c31.85,35.48 70.43,63.9 117.62,91.78l56.88 -79.53c-28.26,-11.26 -54.87,-25.8 -79.65,-42.95zm-111.55 -295.3l6.57 33.47 -102.18 19.97 -6.53 -33.52 102.14 -19.92zm-78.18 142.81l-6.33 -32.41 102.19 -19.97 6.33 32.42 -102.19 19.96zm11.47 73.65l17.31 -3.34c14.74,42.9 35.36,77.12 62.3,108.35 -13.96,5.64 -39.8,18.82 -54.54,23.43l-25.07 -128.44zm1362.81 -227.48l-37.48 177.55c-28.78,136.37 -44.75,192.91 -78.8,243.87l47.69 -225.98 -39.48 -8.37 12.58 -59.57 43.39 9.19 18.58 -87.99 -43.44 -9.14 14.58 -69.04 -74.67 -18.05 -15.03 71.21 -39.52 -8.33 -18.57 87.98 39.52 8.32 -12.58 59.58 -40.05 -8.46 -54.88 259.91 138.58 29.27c-5.19,5.27 -9.27,10.86 -14.46,16.13l70.47 46.25c35.52,-52.38 58.01,-92.96 75.61,-154.36l41.23 8.7 -8.48 40.09c-3.64,17.22 -10.42,21.6 -28.14,20.2l-18.82 -1.62 5.07 91.73 16.04 1.1c57.73,4.58 73.61,-1.91 85.29,-57.03l89.98 -426.36 -174.21 -36.78zm-183.97 1.26c-18.49,-22.49 -49.84,-55.85 -72.43,-72.84l-60.37 54.71c19.43,18.05 57.73,59.86 73.65,80.68l59.15 -62.55zm271.51 110.23l-9.27 43.98 -37.89 -7.97 9.31 -44.01 37.85 8zm-311.43 31.93c-13.07,-17.84 -43.4,-53.32 -70.43,-79.41l-59.98 55.41c20.99,24.74 52.67,64.54 69.69,88.51l60.72 -64.51zm236.92 133.75l6.57 -31.19 3.63 -17.23 37.89 7.96 -10.25 48.42 -37.84 -7.96zm-347.93 169.03c24.09,-47.86 67.53,-138.12 90.18,-187.4l-73 -39.84c-23.92,55.44 -60.62,130.27 -93.69,184.9l76.51 42.34zm167.31 -87.38l-31.2 -6.57 19.16 -90.72 31.19 6.58 -19.15 90.71zm1204.07 171.77l249.45 173.35 -33.76 48.58 71.94 50.02 78.26 -112.6 -145.79 -101.29c4.21,-10.99 8.82,-23.65 11.72,-34.83l-87.82 -61.04 -10.78 35.48 -158.37 -110.07 -78.22 112.6 69.61 48.34 33.76 -48.54zm108.52 148.85c-18.09,-34.78 -52.95,-92.27 -73.04,-124.19l-57.53 38.94c18.33,29.4 49.78,94.84 65.53,128l65.04 -42.75zm69.86 306.2l45.44 -65.4 -113.05 -78.55c18.49,-19.68 35.84,-43.65 56.74,-70.72l45.73 -63.81 -76.59 -53.23 -37.93 52.58c-25.8,34.09 -46.34,60.67 -67.36,79.98l-58.43 -40.58 39.32 -24.66c-15.76,-33.11 -46.21,-90.97 -66.71,-125.3l-63.9 31.11c11.15,20.86 28.5,53.73 44.13,86.06l-113.53 -78.92 -45.45 65.45 185 128.57c-51.24,5.92 -116.32,-24.01 -224.96,-85.01l-15.36 98.8c103.34,51.73 177.93,79.99 237.38,81.13 36.33,45.36 89.41,117.58 121.95,164.41l72.67 -52.7c-24.21,-29.97 -69.53,-86.4 -108.24,-131.31 4.46,-2.45 8.9,-4.9 13.24,-8.16l129.91 90.26zm811.44 570.36l-33.48 73.53c8.78,3.1 18.05,5.84 27.84,8.29l-28.08 18.37 111.41 170.5 31.39 -20.54c-3.14,14.98 -4.04,29.15 -5.26,42.87l84.79 -8.58c2.66,-65.56 17.85,-135.95 55.78,-193.35l-45.77 -70.02c-60.83,9.83 -126.12,1.51 -194.34,-23.85l113.91 -67 -101.13 -154.73 -63.81 41.68 59.73 91.42 -125.79 74.76 -13.39 -20.46 105.82 -63.77 -38.91 -59.53 -167.55 99.29 60.99 93.38 -24.58 15.43c-20.73,-26.62 -61.76,-79.98 -79.65,-104.27l-64.34 46.09c19.8,25.15 59.61,74.55 79.9,97.33l-8.08 5.26c-22.1,15.11 -31.36,10.3 -49.16,-12.73l-20.86 -27.85 -47.53 56.26 26.99 34.02c35.56,46.05 54.1,55.68 99.46,29.47l187.88 -116.03 -7.79 -11.88 73.61 -43.36zm153.1 101.13c-12.41,23.72 -22.42,52.01 -30.09,80.84l-55.73 -85.29c28.82,3.59 57.69,5.15 85.82,4.45zm-94.35 152.04c-25.15,8.29 -59.21,17.6 -96.2,27.52 23.6,-28.38 50.47,-62.22 63.04,-79.25l-49.31 -39.15c-20.79,26.5 -57.94,70.5 -81.42,100.07l33.85 26.82c-18.21,4.45 -36.38,8.86 -53.11,12.33l-88.11 -134.77 -77.61 50.7 158.41 242.4 77.61 -50.71 -30.5 -46.66 154.82 -36.63 -11.47 -72.67zm-182.95 -11.64c26.5,-32.25 70.34,-84.71 94.35,-116.68l-51.24 -39.89c-22.21,27.4 -71.16,82.47 -100.03,116.32l56.92 40.25zm372.26 1156.64l30.17 -5.88 32.58 166.94 68.72 -13.43 -32.63 -166.94 32.95 -6.42 18.7 86.81 -22.82 31.68 65.93 55.52c17.64,-28.37 37.19,-58.87 54.06,-88.23l11.8 60.3 41.31 -8.07 5.23 26.77 134.53 -26.29 -34.99 -179.19 29.64 -14.45 -21.4 -106.56 -28.61 16.62 -37.07 -189.89 -134.57 26.29 5.22 26.82 -41.27 8.05 13.18 67.57c-6.24,-5.15 -12.37,-9.76 -18.04,-15.03 -23.76,-20.86 -29.07,-30.25 -38.46,-54.5l-63.85 32.17c11.1,33.2 17.51,53.97 30.09,103.71l11.18 48.21 -30.7 6 -32.5 -166.37 -68.67 13.39 32.5 166.37 -30.21 5.92 -40.66 -208.3 -73.13 14.29 99.33 508.67 73.12 -14.29 -40.66 -208.26zm349.15 36.74l-30.7 6.01 -58.22 -298.17 30.71 -6 58.21 298.16zm-121.42 -78.88l-4.49 -4.94c-4.69,8.49 -13.34,20.58 -22.57,35.73 -12.58,-49.69 -26.25,-110.81 -33.23,-146.53 16.53,13.56 30.9,24.7 44.57,35.32l15.72 80.42z"/>
  <path class="fil1" d="M17857.38 5309.06l306.08 -181.03 12.91 45.43 -202.85 111.19c-21.18,11.84 -42.39,23.02 -63.56,33.45 37.74,-1.32 59.51,-2 65.32,-2.08l241.3 -0.94 14.97 52.74 -154.01 95c-38.28,23.44 -74.88,43.14 -109.72,59.04 22.11,-1.55 47.65,-2.72 76.64,-3.54l227.35 -8.73 12.49 43.97 -356.53 3.38 -12.09 -42.58 232.34 -140.96c19.43,-11.83 31.37,-19.06 35.77,-21.72 -16.17,0.52 -30.06,0.8 -41.6,0.91l-271.82 2.21 -12.99 -45.74zm545.6 516l18.8 41.58 -180.97 81.82c-31.52,14.24 -58.14,21.97 -79.87,23.27 -21.69,1.2 -42.59,-4.81 -62.57,-18.1 -20.01,-13.35 -36.82,-35.01 -50.47,-65.21 -13.22,-29.24 -19.04,-55.51 -17.31,-78.7 1.69,-23.25 10.28,-43.13 25.87,-59.75 15.59,-16.62 39.97,-32.48 73.15,-47.48l180.97 -81.82 18.8 41.59 -180.9 81.77c-27.21,12.3 -46.19,23.96 -56.74,34.8 -10.64,10.87 -16.74,23.99 -18.1,39.45 -1.47,15.42 1.83,32.03 9.85,49.75 13.72,30.35 30.43,48.88 50.06,55.56 19.69,6.64 49.15,1.06 88.54,-16.74l180.89 -81.79zm-223.45 323.36l298.13 -171.41 22.75 39.57 -122.83 70.61 88.58 154.07 122.83 -70.63 22.74 39.56 -298.13 171.41 -22.74 -39.55 140.32 -80.68 -88.58 -154.06 -140.32 80.67 -22.75 -39.56zm197.52 332.69l351.91 -108.76 30.91 39.34 -183.88 322.56 -32 -40.72 57.36 -95.68 -89.48 -113.86 -105 35.07 -29.82 -37.95zm172.16 -9.46l72.42 92.14 52.8 -87.1c16.11,-26.41 29.88,-47.61 41.22,-63.75 -20.55,10.13 -41.76,18.76 -63.77,25.98l-102.67 32.73zm101.7 349.73l248.9 -237.3 32.26 33.84 -70.86 316.85 195.36 -186.27 30.17 31.64 -248.9 237.3 -32.26 -33.83 70.86 -316.86 -195.37 186.27 -30.16 -31.64zm526.31 359.77l36.52 19.1c-14.35,22.11 -20.81,39.62 -19.35,52.63 1.49,12.95 8.58,23.98 21.17,32.94 9.26,6.58 18.82,10.13 28.55,10.67 9.78,0.48 18.61,-1.99 26.35,-7.48 7.74,-5.5 17.33,-16.36 28.74,-32.41l137.36 -193.17 37.19 26.44 -135.78 190.95c-16.66,23.42 -32.36,39.56 -47.22,48.45 -14.82,8.81 -30.71,12.24 -47.86,10.26 -17.05,-2 -33.87,-8.87 -50.39,-20.61 -24.59,-17.48 -38.36,-37.89 -41.35,-61.32 -2.98,-23.44 5.7,-48.9 26.07,-76.45zm232.05 277.6l185.59 -289.5 38.41 24.62 -185.6 289.51 -38.4 -24.63zm175.89 104.28l156.77 -306.08 41.61 21.32 37.54 322.49 123.05 -240.24 38.91 19.92 -156.77 306.08 -41.61 -21.31 -37.55 -322.5 -123.05 240.24 -38.9 -19.92zm476.59 215.6l46.69 -138.01 -62.05 -230.23 51.87 17.55 31.03 120.35c5.79,22.34 10.76,44.38 14.73,66.09 15.71,-13.7 34.23,-28.73 55.44,-45.22l95.57 -74.65 50.27 17.01 -193.63 143.73 -46.7 138 -43.22 -14.62zm296.04 92.77l93.95 -330.82 43.89 12.46 -93.94 330.82 -43.9 -12.46zm198.89 47.5l60.45 -338.54 46.03 8.22 130.17 297.45 47.45 -265.73 43.02 7.68 -60.45 338.54 -46.02 -8.22 -130.17 -297.44 -47.45 265.73 -43.03 -7.69zm423.87 64.02l8.7 -343.78 45.62 1.15 -3.59 141.64 177.66 4.5 3.58 -141.65 45.61 1.16 -8.69 343.78 -45.62 -1.15 4.1 -161.81 -177.66 -4.49 -4.09 161.8 -45.62 -1.15zm622.68 -354.57l45.49 -3.46 15.06 198.04c2.62,34.48 0.79,62.15 -5.41,83.02 -6.29,20.79 -19.08,38.38 -38.39,52.61 -19.38,14.24 -45.49,22.64 -78.53,25.15 -32.01,2.44 -58.68,-1.07 -79.88,-10.62 -21.28,-9.54 -37.02,-24.4 -47.31,-44.73 -10.3,-20.33 -16.87,-48.65 -19.63,-84.97l-15.06 -198.03 45.49 -3.46 15.05 197.95c2.27,29.78 6.74,51.59 13.32,65.22 6.57,13.71 16.82,23.93 30.89,30.49 14,6.64 30.73,9.22 50.13,7.74 33.2,-2.52 56.33,-11.9 69.31,-28.06 12.98,-16.24 17.8,-45.83 14.52,-88.93l-15.05 -197.96zm459.53 272.5l-93.94 -330.81 43.89 -12.47 82.92 292.01 162.64 -46.19 11.02 38.81 -206.53 58.65zm299.74 -82.63l-3.43 -368.31 46.54 -18.35 256.4 268.56 -48.18 18.99 -75.24 -82.36 -134.72 53.12 3.52 110.65 -44.89 17.7zm40.23 -167.66l109.03 -42.99 -68.33 -75.54c-20.69,-22.99 -37.06,-42.26 -49.27,-57.75 3.82,22.58 6.01,45.38 6.62,68.55l1.95 107.73zm362.19 1.69l-156.77 -306.08 114.85 -58.82c23.37,-11.97 43.68,-18.51 61.03,-19.57 17.28,-1.03 33.21,2.87 47.8,11.67 14.62,8.7 25.51,20.12 32.73,34.23 6.68,13.04 9.43,27.19 8.29,42.35 -1.14,15.15 -7.04,29.96 -17.72,44.42 21.3,-4.08 40.29,-2.11 56.91,5.92 16.65,7.93 29.56,20.84 38.68,38.66 7.37,14.39 11.13,29.28 11.39,44.7 0.26,15.43 -2.37,28.74 -7.84,40 -5.52,11.19 -14.11,21.98 -25.76,32.26 -11.71,10.32 -27.29,20.46 -46.82,30.46l-116.77 59.8zm-50.26 -198.21l66.19 -33.9c17.96,-9.19 30.23,-17.01 36.8,-23.33 8.76,-8.36 13.9,-17.47 15.45,-27.26 1.55,-9.79 -0.38,-20.05 -5.89,-30.8 -5.21,-10.19 -12.24,-17.93 -21.09,-23.11 -8.82,-5.27 -18.55,-7.04 -29.05,-5.26 -10.51,1.79 -26.77,8.32 -48.72,19.55l-61.2 31.35 47.51 92.76zm72.48 141.51l76.23 -39.05c13.11,-6.71 22.05,-11.92 26.88,-15.66 8.43,-6.38 14.84,-13.18 19.11,-20.3 4.25,-7.13 6.46,-15.46 6.7,-25.02 0.22,-9.56 -2.2,-19.2 -7.2,-28.96 -5.87,-11.47 -13.86,-19.89 -24.12,-25.33 -10.18,-5.49 -21.34,-7.24 -33.5,-5.34 -12.08,1.87 -27.91,7.83 -47.36,17.79l-70.82 36.28 54.08 105.59zm223.87 -260.99c-33.02,-46.45 -46.38,-91.76 -40.09,-135.82 6.29,-44.05 29.19,-80.08 68.72,-108.2 25.9,-18.42 53.6,-28.78 83.18,-31.25 29.52,-2.42 57.61,3.53 84.23,17.9 26.58,14.3 49.87,35.46 69.78,63.44 20.18,28.38 32.53,57.9 36.95,88.45 4.48,30.61 0.3,59.12 -12.54,85.54 -12.87,26.53 -31.48,48.41 -55.82,65.71 -26.42,18.79 -54.51,29.15 -84.38,31.22 -29.78,2.03 -57.91,-4.09 -84.29,-18.53 -26.33,-14.38 -48.25,-33.86 -65.74,-58.46zm38.83 -26.63c23.98,33.73 51.94,53.84 83.85,60.32 31.92,6.48 61.6,0 88.99,-19.48 27.93,-19.86 43.87,-45.92 48.02,-78.35 4.08,-32.37 -6.67,-66.57 -32.28,-102.57 -16.19,-22.77 -34.19,-39.94 -53.95,-51.42 -19.76,-11.49 -40.42,-16.64 -61.86,-15.44 -21.5,1.25 -41.48,8.38 -59.95,21.51 -26.22,18.65 -42.39,43.7 -48.51,75.16 -6.11,31.46 5.77,68.2 35.69,110.27zm434.77 -114.13l-225.15 -259.94 115.2 -99.79c23.17,-20.07 42.82,-32.97 58.9,-38.74 16.07,-5.77 32.82,-5.88 50.24,-0.31 17.42,5.56 32.31,15.53 44.68,29.81 15.99,18.46 23.47,39.2 22.51,62.17 -0.97,22.96 -12.45,46.9 -34.39,71.93 12.91,-3.55 23.58,-5.17 31.97,-5.03 18.01,0.5 37.52,3.83 58.42,9.98l106.28 31.85 -42.96 37.21 -81.23 -24.32c-23.55,-7.02 -42.17,-11.76 -55.82,-14.45 -13.72,-2.63 -24.5,-3.35 -32.53,-2.21 -7.91,1.14 -15.17,3.39 -21.65,6.67 -4.55,2.57 -11.27,7.65 -20.16,15.36l-39.82 34.49 100 115.44 -34.49 29.88zm-91.3 -175.09l73.82 -63.95c15.73,-13.62 26.54,-25.85 32.55,-36.77 6.05,-10.85 8.26,-21.88 6.56,-33 -1.59,-11.13 -5.99,-20.86 -13.28,-29.27 -10.64,-12.29 -23.86,-18.63 -39.62,-18.85 -15.76,-0.22 -33.2,8 -52.39,24.62l-82.17 71.18 74.53 86.04zm379.89 -83.92l-173.57 -324.87 32.76 -37.81 351.6 119.32 -33.9 39.15 -104.84 -38.17 -94.81 109.46 54.36 96.44 -31.6 36.48zm-41.96 -167.24l76.73 -88.58 -95.54 -35.31c-28.98,-10.81 -52.42,-20.31 -70.42,-28.38 13.85,18.25 26.35,37.44 37.62,57.68l51.61 94.59zm374.19 -238.5l-247.39 -175.92 -65.68 92.38 -32.88 -23.38 157.82 -221.94 32.87 23.38 -65.68 92.37 247.38 175.92 -26.44 37.19zm5.18 -309.18c-49.41,-28.4 -80.48,-64 -93.17,-106.65 -12.68,-42.66 -6.92,-84.97 17.26,-127.02 15.84,-27.56 36.68,-48.53 62.52,-63.13 25.81,-14.53 53.82,-20.86 84.01,-18.93 30.12,1.91 60.12,11.4 89.9,28.51 30.18,17.36 53.74,39.02 70.51,64.93 16.86,25.94 24.97,53.58 24.33,82.96 -0.6,29.48 -8.38,57.13 -23.27,83.02 -16.16,28.11 -37.36,49.25 -63.62,63.61 -26.22,14.29 -54.34,20.46 -84.34,18.36 -29.93,-2.06 -57.97,-10.61 -84.13,-25.66zm24.15 -40.4c35.88,20.62 69.67,27.22 101.38,19.77 31.7,-7.43 55.97,-25.72 72.72,-54.86 17.08,-29.7 20.67,-60.05 10.91,-91.24 -9.82,-31.12 -33.87,-57.7 -72.18,-79.72 -24.22,-13.93 -47.74,-22 -70.49,-24.19 -22.75,-2.18 -43.67,1.77 -62.66,11.81 -19.01,10.12 -34.19,24.94 -45.48,44.58 -16.04,27.89 -20.27,57.41 -12.68,88.55 7.58,31.14 33.72,59.56 78.48,85.3zm337.22 -290.65l-319.93 -126.14 55.91 -141.8c11.24,-28.52 22.69,-49.04 34.27,-61.6 11.57,-12.56 26.37,-20.41 44.39,-23.54 18.02,-3.14 35.83,-1.19 53.41,5.74 22.71,8.95 38.94,23.87 48.73,44.68 9.78,20.81 10.68,47.32 2.83,79.68 9.79,-9.13 18.5,-15.51 26.01,-19.26 16.19,-7.9 35.02,-13.99 56.39,-18.21l108.95 -20.97 -20.85 52.87 -83.25 16.05c-24.14,4.68 -42.83,9.1 -56.17,13.04 -13.38,4.02 -23.27,8.38 -29.86,13.1 -6.49,4.67 -11.87,10.03 -16.1,15.94 -2.85,4.39 -6.45,12 -10.76,22.95l-19.32 49 142.08 56.02 -16.73 42.45zm-162 -112.92l35.83 -90.85c7.63,-19.36 11.55,-35.2 11.82,-47.66 0.33,-12.43 -2.81,-23.22 -9.47,-32.3 -6.56,-9.12 -14.97,-15.71 -25.32,-19.8 -15.11,-5.96 -29.77,-5.45 -43.85,1.65 -14.07,7.1 -25.72,22.47 -35.03,46.07l-39.87 101.14 105.89 41.75zm332.32 -380.14l-140.15 -39.8 -226.87 73.38 14.96 -52.67 118.66 -36.96c22.02,-6.88 43.79,-12.94 65.27,-17.99 -14.45,-15.01 -30.38,-32.76 -47.9,-53.13l-79.29 -91.75 14.5 -51.05 153.14 186.28 140.15 39.8 -12.47 43.89z"/>
 </g>
</svg>
